<svg id="Capa_1" enable-background="new 0 0 510 510" height="512" viewBox="0 0 510 510" width="512" xmlns="http://www.w3.org/2000/svg" xmlns:xlink="http://www.w3.org/1999/xlink"><linearGradient id="lg1"><stop offset="0" stop-color="#fee97d"/><stop offset="1" stop-color="#fac600"/></linearGradient><linearGradient id="SVGID_1_" gradientUnits="userSpaceOnUse" x1="255" x2="255" xlink:href="#lg1" y1="442.034" y2="495.119"/><linearGradient id="SVGID_2_" gradientUnits="userSpaceOnUse" x1="255" x2="255" xlink:href="#lg1" y1="386.034" y2="480.039"/><linearGradient id="SVGID_3_" gradientUnits="userSpaceOnUse" x1="255" x2="255" xlink:href="#lg1" y1="304.034" y2="398.119"/><linearGradient id="SVGID_4_" gradientUnits="userSpaceOnUse" x1="255" x2="255" xlink:href="#lg1" y1="217.034" y2="319.112"/><linearGradient id="SVGID_5_" gradientUnits="userSpaceOnUse" x1="255" x2="255" xlink:href="#lg1" y1="136.034" y2="240.053"/><linearGradient id="lg2"><stop offset="0" stop-color="#fac600" stop-opacity="0"/><stop offset=".6899" stop-color="#d68c3d" stop-opacity=".69"/><stop offset="1" stop-color="#c5715a"/></linearGradient><linearGradient id="SVGID_6_" gradientUnits="userSpaceOnUse" x1="329.833" x2="166.776" xlink:href="#lg2" y1="403.867" y2="240.809"/><linearGradient id="lg3"><stop offset="0" stop-color="#c5715a"/><stop offset="1" stop-color="#883f2e"/></linearGradient><linearGradient id="SVGID_7_" gradientUnits="userSpaceOnUse" x1="228" x2="270.644" xlink:href="#lg3" y1="302.034" y2="344.678"/><linearGradient id="SVGID_8_" gradientUnits="userSpaceOnUse" x1="255" x2="255" xlink:href="#lg2" y1="308.034" y2="520.495"/><linearGradient id="SVGID_9_" gradientUnits="userSpaceOnUse" x1="255" x2="255" xlink:href="#lg2" y1="551.034" y2="462.829"/><linearGradient id="SVGID_10_" gradientUnits="userSpaceOnUse" x1="294.186" x2="223.69" xlink:href="#lg2" y1="310.223" y2="181.229"/><linearGradient id="SVGID_11_" gradientUnits="userSpaceOnUse" x1="255" x2="255" xlink:href="#lg3" y1="48.149" y2="160.309"/><linearGradient id="lg4"><stop offset="0" stop-color="#a2e62e"/><stop offset=".1231" stop-color="#97de30"/><stop offset=".3395" stop-color="#79cb36"/><stop offset=".6234" stop-color="#4aab3f"/><stop offset=".9609" stop-color="#09804c"/><stop offset="1" stop-color="#017b4e"/></linearGradient><linearGradient id="SVGID_12_" gradientTransform="matrix(0 1 -1 0 358.628 -286.458)" gradientUnits="userSpaceOnUse" x1="348" x2="456.932" xlink:href="#lg4" y1=".937" y2="109.869"/><linearGradient id="lg5"><stop offset="0" stop-color="#017b4e" stop-opacity="0"/><stop offset="1" stop-color="#026841"/></linearGradient><linearGradient id="SVGID_13_" gradientTransform="matrix(0 1 -1 0 358.628 -286.458)" gradientUnits="userSpaceOnUse" x1="469.919" x2="419.231" xlink:href="#lg5" y1="105.035" y2="88.14"/><linearGradient id="SVGID_14_" gradientTransform="matrix(-.707 .707 -.707 -.707 2281.773 -3264.351)" gradientUnits="userSpaceOnUse" x1="3844.496" x2="3844.496" xlink:href="#lg5" y1="-999.314" y2="-916.274"/><linearGradient id="lg6"><stop offset="0" stop-color="#017b4e" stop-opacity="0"/><stop offset=".4829" stop-color="#01754a" stop-opacity=".483"/><stop offset="1" stop-color="#026841"/></linearGradient><linearGradient id="SVGID_15_" gradientTransform="matrix(-.707 .707 -.707 -.707 2281.773 -3264.351)" gradientUnits="userSpaceOnUse" x1="3844.496" x2="3844.496" xlink:href="#lg6" y1="-1078.065" y2="-968.866"/><linearGradient id="SVGID_16_" gradientTransform="matrix(1 0 0 -1 58.061 223.872)" gradientUnits="userSpaceOnUse" x1="23.349" x2="181.804" xlink:href="#lg4" y1="-1.379" y2="157.076"/><linearGradient id="SVGID_17_" gradientTransform="matrix(.707 .707 .707 -.707 3520.407 1057.136)" gradientUnits="userSpaceOnUse" x1="-2970.79" x2="-3078.288" xlink:href="#lg5" y1="-1774.899" y2="-1774.899"/><linearGradient id="SVGID_18_" gradientTransform="matrix(.707 .707 .707 -.707 3520.407 1057.136)" gradientUnits="userSpaceOnUse" x1="-3019.97" x2="-3019.97" xlink:href="#lg5" y1="-1746.964" y2="-1631.869"/><linearGradient id="SVGID_19_" gradientTransform="matrix(.707 .707 .707 -.707 3520.407 1057.136)" gradientUnits="userSpaceOnUse" x1="-3019.97" x2="-3019.97" xlink:href="#lg6" y1="-1836.044" y2="-1684.691"/><g><g><ellipse cx="255" cy="415.651" fill="url(#SVGID_1_)" rx="130.537" ry="94.349"/><ellipse cx="255" cy="379.53" fill="url(#SVGID_2_)" rx="183.977" ry="94.349"/><ellipse cx="255" cy="309.034" fill="url(#SVGID_3_)" rx="201.85" ry="94.349"/><ellipse cx="255" cy="238.537" fill="url(#SVGID_4_)" rx="183.977" ry="94.349"/><ellipse cx="255" cy="181.22" fill="url(#SVGID_5_)" rx="130.537" ry="73.153"/><g><circle cx="255" cy="329.034" fill="url(#SVGID_6_)" r="70.23"/><circle cx="255" cy="329.034" fill="url(#SVGID_7_)" r="51.93"/></g><path d="m456.85 309.034c0-52.107-90.371-94.349-201.85-94.349s-201.85 42.241-201.85 94.349c0 16.362 8.915 31.75 24.591 45.163-4.372 8.062-6.718 16.557-6.718 25.333 0 28.254 24.224 53.603 62.594 70.894 19.155 34.898 66.28 59.576 121.383 59.576s102.229-24.678 121.382-59.576c38.37-17.292 62.594-42.64 62.594-70.894 0-8.776-2.346-17.271-6.718-25.333 15.677-13.414 24.592-28.801 24.592-45.163z" fill="url(#SVGID_8_)"/><path d="m255 473.879c-46.513 0-88.988-8.856-121.382-23.455 19.154 34.898 66.279 59.576 121.382 59.576s102.229-24.678 121.382-59.576c-32.394 14.598-74.869 23.455-121.382 23.455z" fill="url(#SVGID_9_)"/></g><path d="m432.26 354.2c4.37 8.06 6.72 16.55 6.72 25.33 0 28.25-24.23 53.6-62.6 70.89-11.77 21.45-34.11 39.04-62.38 49.42l-236.42-236.42-.05.05c-4.24-7.94-6.51-16.3-6.51-24.93 0-26.24 20.89-49.97 54.6-67.07 8.51-35.79 63.19-63.4 129.38-63.4s120.87 27.61 129.38 63.4c33.71 17.1 54.6 40.83 54.6 67.07 0 8.77-2.35 17.27-6.72 25.33 15.68 13.41 24.59 28.8 24.59 45.16 0 16.37-8.91 31.75-24.59 45.17z" fill="url(#SVGID_10_)"/><path d="m510 111.797c0 10.78-7.76 19.98-18.38 21.8l-109.78 18.84c-41.67 7.15-84.8 3.62-124.74-10.21l-242.22-83.85c-8.91-3.08-14.88-11.47-14.88-20.9 0-12.63 10.35-22.13 22.09-22.13 2.39 0 4.83.39 7.26 1.23l170.5 59.02c31.24 10.82 65.34-5.75 76.16-36.99l8.212-23.719c4.187-12.094 17.734-18.12 29.52-13.131 10.716 4.536 16.083 16.6 12.279 27.597l-5.54 16.012c-11.92 34.44 17.18 69.62 53.12 63.6.25-.05.5-.09.76-.13l109.78-18.83c13.519-2.319 25.859 8.081 25.859 21.791z" fill="url(#SVGID_11_)"/><g><g><path d="m307.96 217.193c9.779-.95 17.469-8.64 18.418-18.418 2.597-26.733-7.136-55.45-28.803-77.117s-50.385-31.4-77.118-28.803c-9.778.95-17.468 8.64-18.418 18.418-2.597 26.733 7.136 55.45 28.804 77.117s50.385 31.4 77.117 28.803z" fill="url(#SVGID_12_)"/><path d="m207.938 98.752c-3.264 3.263-5.424 7.631-5.899 12.52-2.597 26.732 7.136 55.45 28.804 77.117 21.667 21.667 50.385 31.4 77.117 28.804 4.889-.475 9.257-2.635 12.52-5.899z" fill="url(#SVGID_13_)"/><path d="m225.75 182.904c1.62 1.871 3.312 3.704 5.093 5.486 21.667 21.667 50.385 31.4 77.117 28.804 9.779-.95 17.469-8.64 18.418-18.418 2.597-26.733-7.136-55.45-28.803-77.117-1.781-1.781-3.614-3.474-5.486-5.093h-66.34z" fill="url(#SVGID_14_)"/><path d="m265.515 156.329v54.807c13.824 5.379 28.408 7.421 42.445 6.057 9.779-.95 17.469-8.64 18.418-18.418 1.364-14.038-.678-28.622-6.057-42.446z" fill="url(#SVGID_15_)"/></g></g><g><path d="m69.282 262.907c-13.553-1.316-24.212-11.975-25.528-25.528-3.599-37.052 9.891-76.856 39.922-106.887 30.032-30.032 69.835-43.522 106.887-39.923 13.553 1.317 24.212 11.975 25.528 25.528 3.599 37.052-9.891 76.855-39.923 106.887-30.031 30.032-69.834 43.522-106.886 39.923z" fill="url(#SVGID_16_)"/><path d="m207.916 98.744c4.524 4.523 7.517 10.576 8.176 17.353 3.599 37.052-9.891 76.855-39.923 106.887-30.031 30.031-69.835 43.522-106.887 39.923-6.777-.659-12.83-3.652-17.353-8.176z" fill="url(#SVGID_17_)"/><path d="m183.228 215.381c-2.245 2.594-4.591 5.135-7.059 7.603-30.031 30.031-69.835 43.522-106.887 39.923-13.553-1.317-24.212-11.975-25.529-25.529-3.599-37.052 9.891-76.856 39.922-106.887 2.469-2.469 5.009-4.815 7.604-7.06h91.949z" fill="url(#SVGID_18_)"/><path d="m128.113 178.548v75.964c-19.161 7.456-39.374 10.286-58.831 8.396-13.553-1.317-24.212-11.975-25.529-25.529-1.89-19.457.94-39.67 8.396-58.831z" fill="url(#SVGID_19_)"/></g></g></svg>